<svg width="21" height="16" viewBox="0 0 21 16" fill="none" xmlns="http://www.w3.org/2000/svg">
<path d="M0.709371 7.99842C0.630202 7.77388 0.630202 7.52689 0.709371 7.30236C1.48045 5.33404 2.78931 3.65108 4.47001 2.46683C6.15072 1.28259 8.12759 0.650391 10.15 0.650391C12.1724 0.650391 14.1493 1.28259 15.83 2.46683C17.5107 3.65108 18.8195 5.33404 19.5906 7.30236C19.6698 7.52689 19.6698 7.77388 19.5906 7.99842C18.8195 9.96674 17.5107 11.6497 15.83 12.8339C14.1493 14.0182 12.1724 14.6504 10.15 14.6504C8.12759 14.6504 6.15072 14.0182 4.47001 12.8339C2.78931 11.6497 1.48045 9.96674 0.709371 7.99842Z" stroke="#ADADAD" stroke-width="1.3" stroke-linecap="round" stroke-linejoin="round"/>
<path d="M10.1501 10.6509C11.7241 10.6509 13 9.30766 13 7.65065C13 5.99365 11.7241 4.65039 10.1501 4.65039C8.57619 4.65039 7.30026 5.99365 7.30026 7.65065C7.30026 9.30766 8.57619 10.6509 10.1501 10.6509Z" stroke="#ADADAD" stroke-width="1.3" stroke-linecap="round" stroke-linejoin="round"/>
</svg>
