<svg width="364" height="369" viewBox="0 0 364 369" fill="none" xmlns="http://www.w3.org/2000/svg">
<rect x="0.5" y="0.5" width="363" height="368" rx="4.5" stroke="#736BEA" stroke-dasharray="10 5"/>
<path d="M39.5 23H37.25V22.25C37.25 22.0511 37.171 21.8603 37.0303 21.7197C36.8897 21.579 36.6989 21.5 36.5 21.5C36.3011 21.5 36.1103 21.579 35.9697 21.7197C35.829 21.8603 35.75 22.0511 35.75 22.25V23H28.25V22.25C28.25 22.0511 28.171 21.8603 28.0303 21.7197C27.8897 21.579 27.6989 21.5 27.5 21.5C27.3011 21.5 27.1103 21.579 26.9697 21.7197C26.829 21.8603 26.75 22.0511 26.75 22.25V23H24.5C24.1022 23 23.7206 23.158 23.4393 23.4393C23.158 23.7206 23 24.1022 23 24.5V39.5C23 39.8978 23.158 40.2794 23.4393 40.5607C23.7206 40.842 24.1022 41 24.5 41H39.5C39.8978 41 40.2794 40.842 40.5607 40.5607C40.842 40.2794 41 39.8978 41 39.5V24.5C41 24.1022 40.842 23.7206 40.5607 23.4393C40.2794 23.158 39.8978 23 39.5 23ZM26.75 24.5V25.25C26.75 25.4489 26.829 25.6397 26.9697 25.7803C27.1103 25.921 27.3011 26 27.5 26C27.6989 26 27.8897 25.921 28.0303 25.7803C28.171 25.6397 28.25 25.4489 28.25 25.25V24.5H35.75V25.25C35.75 25.4489 35.829 25.6397 35.9697 25.7803C36.1103 25.921 36.3011 26 36.5 26C36.6989 26 36.8897 25.921 37.0303 25.7803C37.171 25.6397 37.25 25.4489 37.25 25.25V24.5H39.5V27.5H24.5V24.5H26.75ZM39.5 39.5H24.5V29H39.5V39.5ZM33.125 32.375C33.125 32.5975 33.059 32.815 32.9354 33C32.8118 33.185 32.6361 33.3292 32.4305 33.4144C32.225 33.4995 31.9988 33.5218 31.7805 33.4784C31.5623 33.435 31.3618 33.3278 31.2045 33.1705C31.0472 33.0132 30.94 32.8127 30.8966 32.5945C30.8532 32.3762 30.8755 32.15 30.9606 31.9445C31.0458 31.7389 31.19 31.5632 31.375 31.4396C31.56 31.316 31.7775 31.25 32 31.25C32.2984 31.25 32.5845 31.3685 32.7955 31.5795C33.0065 31.7905 33.125 32.0766 33.125 32.375ZM37.25 32.375C37.25 32.5975 37.184 32.815 37.0604 33C36.9368 33.185 36.7611 33.3292 36.5555 33.4144C36.35 33.4995 36.1238 33.5218 35.9055 33.4784C35.6873 33.435 35.4868 33.3278 35.3295 33.1705C35.1722 33.0132 35.065 32.8127 35.0216 32.5945C34.9782 32.3762 35.0005 32.15 35.0856 31.9445C35.1708 31.7389 35.315 31.5632 35.5 31.4396C35.685 31.316 35.9025 31.25 36.125 31.25C36.4234 31.25 36.7095 31.3685 36.9205 31.5795C37.1315 31.7905 37.25 32.0766 37.25 32.375ZM29 36.125C29 36.3475 28.934 36.565 28.8104 36.75C28.6868 36.935 28.5111 37.0792 28.3055 37.1644C28.1 37.2495 27.8738 37.2718 27.6555 37.2284C27.4373 37.185 27.2368 37.0778 27.0795 36.9205C26.9222 36.7632 26.815 36.5627 26.7716 36.3445C26.7282 36.1262 26.7505 35.9 26.8356 35.6945C26.9208 35.4889 27.065 35.3132 27.25 35.1896C27.435 35.066 27.6525 35 27.875 35C28.1734 35 28.4595 35.1185 28.6705 35.3295C28.8815 35.5405 29 35.8266 29 36.125ZM33.125 36.125C33.125 36.3475 33.059 36.565 32.9354 36.75C32.8118 36.935 32.6361 37.0792 32.4305 37.1644C32.225 37.2495 31.9988 37.2718 31.7805 37.2284C31.5623 37.185 31.3618 37.0778 31.2045 36.9205C31.0472 36.7632 30.94 36.5627 30.8966 36.3445C30.8532 36.1262 30.8755 35.9 30.9606 35.6945C31.0458 35.4889 31.19 35.3132 31.375 35.1896C31.56 35.066 31.7775 35 32 35C32.2984 35 32.5845 35.1185 32.7955 35.3295C33.0065 35.5405 33.125 35.8266 33.125 36.125ZM37.25 36.125C37.25 36.3475 37.184 36.565 37.0604 36.75C36.9368 36.935 36.7611 37.0792 36.5555 37.1644C36.35 37.2495 36.1238 37.2718 35.9055 37.2284C35.6873 37.185 35.4868 37.0778 35.3295 36.9205C35.1722 36.7632 35.065 36.5627 35.0216 36.3445C34.9782 36.1262 35.0005 35.9 35.0856 35.6945C35.1708 35.4889 35.315 35.3132 35.5 35.1896C35.685 35.066 35.9025 35 36.125 35C36.4234 35 36.7095 35.1185 36.9205 35.3295C37.1315 35.5405 37.25 35.8266 37.25 36.125Z" fill="#525252"/>
<path d="M82 22.25C80.0716 22.25 78.1866 22.8218 76.5832 23.8932C74.9798 24.9645 73.7301 26.4873 72.9922 28.2688C72.2542 30.0504 72.0611 32.0108 72.4373 33.9021C72.8136 35.7934 73.7422 37.5307 75.1057 38.8943C76.4693 40.2579 78.2066 41.1865 80.0979 41.5627C81.9892 41.9389 83.9496 41.7458 85.7312 41.0078C87.5127 40.2699 89.0355 39.0202 90.1068 37.4168C91.1782 35.8134 91.75 33.9284 91.75 32C91.7473 29.415 90.7192 26.9366 88.8913 25.1087C87.0634 23.2808 84.585 22.2527 82 22.25ZM82 40.25C80.3683 40.25 78.7733 39.7661 77.4165 38.8596C76.0598 37.9531 75.0024 36.6646 74.378 35.1571C73.7536 33.6496 73.5902 31.9908 73.9085 30.3905C74.2269 28.7902 75.0126 27.3202 76.1664 26.1664C77.3202 25.0126 78.7902 24.2268 80.3905 23.9085C81.9909 23.5902 83.6497 23.7536 85.1571 24.378C86.6646 25.0024 87.9531 26.0598 88.8596 27.4165C89.7661 28.7733 90.25 30.3683 90.25 32C90.2475 34.1873 89.3775 36.2843 87.8309 37.8309C86.2843 39.3775 84.1873 40.2475 82 40.25ZM88 32C88 32.1989 87.921 32.3897 87.7803 32.5303C87.6397 32.671 87.4489 32.75 87.25 32.75H82C81.8011 32.75 81.6103 32.671 81.4697 32.5303C81.329 32.3897 81.25 32.1989 81.25 32V26.75C81.25 26.5511 81.329 26.3603 81.4697 26.2197C81.6103 26.079 81.8011 26 82 26C82.1989 26 82.3897 26.079 82.5303 26.2197C82.671 26.3603 82.75 26.5511 82.75 26.75V31.25H87.25C87.4489 31.25 87.6397 31.329 87.7803 31.4697C87.921 31.6103 88 31.8011 88 32Z" fill="#525252"/>
<path d="M130.992 34.8053C131.997 34.1361 132.761 33.1612 133.169 32.0248C133.577 30.8883 133.609 29.6506 133.259 28.4947C132.91 27.3389 132.197 26.3262 131.228 25.6064C130.258 24.8867 129.083 24.498 127.875 24.498C126.667 24.498 125.492 24.8867 124.522 25.6064C123.553 26.3262 122.84 27.3389 122.491 28.4947C122.141 29.6506 122.173 30.8883 122.581 32.0248C122.989 33.1612 123.753 34.1361 124.758 34.8053C122.94 35.4755 121.387 36.7156 120.331 38.3406C120.275 38.4231 120.237 38.5158 120.218 38.6133C120.198 38.7108 120.198 38.8111 120.218 38.9085C120.238 39.0059 120.277 39.0984 120.333 39.1807C120.389 39.2629 120.46 39.3332 120.543 39.3875C120.627 39.4418 120.72 39.479 120.818 39.497C120.915 39.5149 121.016 39.5133 121.113 39.4921C121.21 39.4709 121.302 39.4307 121.383 39.3737C121.465 39.3167 121.534 39.244 121.587 39.16C122.268 38.1126 123.2 37.2519 124.298 36.6561C125.396 36.0603 126.626 35.7482 127.875 35.7482C129.124 35.7482 130.354 36.0603 131.452 36.6561C132.55 37.2519 133.482 38.1126 134.163 39.16C134.273 39.3235 134.443 39.4371 134.636 39.4763C134.829 39.5156 135.03 39.4772 135.195 39.3695C135.36 39.2619 135.476 39.0936 135.518 38.9011C135.56 38.7085 135.524 38.5072 135.419 38.3406C134.363 36.7156 132.81 35.4755 130.992 34.8053ZM123.75 30.1253C123.75 29.3095 123.992 28.512 124.445 27.8336C124.898 27.1552 125.543 26.6265 126.296 26.3143C127.05 26.0021 127.88 25.9204 128.68 26.0796C129.48 26.2388 130.215 26.6316 130.792 27.2085C131.369 27.7854 131.762 28.5204 131.921 29.3206C132.08 30.1208 131.998 30.9502 131.686 31.7039C131.374 32.4576 130.845 33.1019 130.167 33.5551C129.488 34.0084 128.691 34.2503 127.875 34.2503C126.781 34.2491 125.733 33.8141 124.96 33.0408C124.186 32.2675 123.751 31.219 123.75 30.1253ZM143.451 39.3785C143.284 39.4871 143.081 39.5251 142.886 39.4841C142.692 39.4432 142.521 39.3266 142.413 39.16C141.733 38.112 140.801 37.2509 139.703 36.6554C138.604 36.0598 137.374 35.7487 136.125 35.7503C135.926 35.7503 135.735 35.6713 135.595 35.5307C135.454 35.39 135.375 35.1992 135.375 35.0003C135.375 34.8014 135.454 34.6107 135.595 34.47C135.735 34.3293 135.926 34.2503 136.125 34.2503C136.732 34.2498 137.332 34.115 137.882 33.8557C138.431 33.5965 138.916 33.2191 139.303 32.7505C139.69 32.2819 139.968 31.7337 140.118 31.1451C140.268 30.5565 140.287 29.942 140.172 29.3455C140.057 28.749 139.812 28.1852 139.454 27.6944C139.096 27.2036 138.634 26.798 138.101 26.5064C137.568 26.2149 136.977 26.0447 136.371 26.0079C135.764 25.9711 135.157 26.0687 134.593 26.2938C134.501 26.3335 134.402 26.3545 134.302 26.3553C134.202 26.3562 134.102 26.3369 134.01 26.2987C133.917 26.2605 133.833 26.2041 133.762 26.1328C133.692 26.0616 133.636 25.9769 133.599 25.8839C133.562 25.7908 133.544 25.6912 133.546 25.591C133.548 25.4908 133.57 25.392 133.61 25.3004C133.651 25.2089 133.71 25.1264 133.783 25.0579C133.856 24.9894 133.942 24.9362 134.036 24.9016C135.328 24.3866 136.764 24.368 138.068 24.8496C139.372 25.3311 140.452 26.2785 141.099 27.5092C141.746 28.7398 141.914 30.1664 141.571 31.5137C141.228 32.861 140.399 34.0336 139.242 34.8053C141.06 35.4755 142.613 36.7156 143.669 38.3406C143.778 38.5072 143.816 38.7102 143.775 38.9048C143.734 39.0994 143.617 39.2698 143.451 39.3785Z" fill="#525252"/>
<path d="M182 26C181.258 26 180.533 26.2199 179.917 26.632C179.3 27.044 178.819 27.6297 178.535 28.3149C178.252 29.0002 178.177 29.7542 178.322 30.4816C178.467 31.209 178.824 31.8772 179.348 32.4017C179.873 32.9261 180.541 33.2833 181.268 33.4279C181.996 33.5726 182.75 33.4984 183.435 33.2145C184.12 32.9307 184.706 32.4501 185.118 31.8334C185.53 31.2167 185.75 30.4917 185.75 29.75C185.75 28.7554 185.355 27.8016 184.652 27.0983C183.948 26.3951 182.995 26 182 26ZM182 32C181.555 32 181.12 31.868 180.75 31.6208C180.38 31.3736 180.092 31.0222 179.921 30.611C179.751 30.1999 179.706 29.7475 179.793 29.311C179.88 28.8746 180.094 28.4737 180.409 28.159C180.724 27.8443 181.125 27.63 181.561 27.5432C181.998 27.4564 182.45 27.501 182.861 27.6713C183.272 27.8416 183.624 28.13 183.871 28.5C184.118 28.87 184.25 29.305 184.25 29.75C184.25 30.3467 184.013 30.919 183.591 31.341C183.169 31.7629 182.597 32 182 32ZM182 21.5C179.813 21.5025 177.716 22.3725 176.169 23.9191C174.622 25.4657 173.752 27.5627 173.75 29.75C173.75 32.6938 175.11 35.8138 177.688 38.7734C178.846 40.1108 180.149 41.3151 181.573 42.3641C181.7 42.4524 181.85 42.4998 182.004 42.4998C182.158 42.4998 182.308 42.4524 182.434 42.3641C183.856 41.3147 185.157 40.1104 186.312 38.7734C188.886 35.8138 190.25 32.6938 190.25 29.75C190.248 27.5627 189.378 25.4657 187.831 23.9191C186.284 22.3725 184.187 21.5025 182 21.5ZM182 40.8125C180.45 39.5938 175.25 35.1172 175.25 29.75C175.25 27.9598 175.961 26.2429 177.227 24.977C178.493 23.7112 180.21 23 182 23C183.79 23 185.507 23.7112 186.773 24.977C188.039 26.2429 188.75 27.9598 188.75 29.75C188.75 35.1153 183.55 39.5938 182 40.8125Z" fill="#525252"/>
<path d="M236.656 27.313C235.961 27.3125 235.269 27.4058 234.599 27.5902C234.334 27.1585 234.013 26.7643 233.643 26.4182L234.609 25.04C234.67 24.9526 234.713 24.8539 234.736 24.7497C234.76 24.6455 234.762 24.5378 234.743 24.4327C234.725 24.3276 234.686 24.2272 234.628 24.1371C234.571 24.0471 234.497 23.9693 234.409 23.9081C234.322 23.8469 234.223 23.8035 234.119 23.7804C234.015 23.7572 233.907 23.7549 233.802 23.7734C233.697 23.792 233.596 23.831 233.506 23.8884C233.416 23.9457 233.338 24.0202 233.277 24.1076L232.311 25.4848C231.517 25.0838 230.64 24.8751 229.75 24.8755C229.691 24.8755 229.632 24.8755 229.573 24.8755L229.28 23.221C229.264 23.1132 229.227 23.0096 229.171 22.9163C229.115 22.8231 229.041 22.7421 228.952 22.6782C228.864 22.6142 228.764 22.5687 228.658 22.5442C228.552 22.5197 228.442 22.5169 228.335 22.5357C228.227 22.5546 228.125 22.5948 228.034 22.654C227.942 22.7132 227.864 22.7902 227.803 22.8804C227.742 22.9705 227.699 23.0721 227.678 23.1789C227.657 23.2858 227.658 23.3957 227.68 23.5023L227.973 25.1619C227.072 25.4599 226.259 25.9783 225.609 26.6701L224.226 25.7022C224.139 25.6394 224.04 25.5947 223.935 25.5705C223.83 25.5463 223.722 25.5431 223.616 25.5612C223.51 25.5793 223.408 25.6182 223.317 25.6758C223.227 25.7333 223.148 25.8083 223.086 25.8965C223.025 25.9846 222.981 26.0841 222.958 26.1892C222.935 26.2942 222.934 26.4028 222.953 26.5086C222.972 26.6144 223.013 26.7153 223.071 26.8054C223.13 26.8955 223.206 26.9731 223.295 27.0337L224.672 28.0005C224.269 28.7946 224.061 29.6727 224.063 30.563C224.063 30.6208 224.063 30.6797 224.063 30.7376L222.408 31.0301C222.208 31.0652 222.028 31.1741 221.904 31.3353C221.78 31.4965 221.721 31.6983 221.739 31.9008C221.756 32.1033 221.849 32.2919 221.999 32.4293C222.149 32.5667 222.345 32.6429 222.548 32.643C222.596 32.6429 222.643 32.6388 222.689 32.6308L224.347 32.3383C224.493 32.7817 224.692 33.2053 224.942 33.5997C224.165 34.3215 223.623 35.2607 223.387 36.2948C223.151 37.329 223.232 38.4102 223.62 39.3976C224.007 40.3851 224.683 41.233 225.559 41.8311C226.435 42.4291 227.471 42.7495 228.531 42.7505H236.656C238.703 42.7505 240.667 41.9372 242.114 40.4897C243.562 39.0421 244.375 37.0788 244.375 35.0317C244.375 32.9846 243.562 31.0213 242.114 29.5737C240.667 28.1262 238.703 27.313 236.656 27.313ZM225.688 30.563C225.688 29.7026 225.962 28.8646 226.469 28.1697C226.976 27.4748 227.691 26.9589 228.511 26.6964C229.33 26.4339 230.211 26.4384 231.028 26.709C231.845 26.9797 232.554 27.5027 233.055 28.2026C231.397 29.0749 230.112 30.5181 229.437 32.2651C228.369 32.0808 227.27 32.2286 226.289 32.6887C225.896 32.0492 225.688 31.3135 225.688 30.563ZM236.656 41.1255H228.531C228.031 41.1245 227.537 41.021 227.078 40.8214C226.62 40.6217 226.207 40.3301 225.866 39.9646C225.524 39.5991 225.262 39.1675 225.094 38.6965C224.926 38.2254 224.857 37.7249 224.89 37.226C224.923 36.727 225.058 36.2402 225.287 35.7956C225.516 35.351 225.834 34.958 226.221 34.6411C226.607 34.3242 227.055 34.0899 227.536 33.9529C228.017 33.8159 228.521 33.779 229.017 33.8444C228.979 34.0851 228.953 34.3309 228.939 34.5787C228.926 34.7942 229 35.0058 229.143 35.1669C229.287 35.3281 229.489 35.4256 229.704 35.438C229.92 35.4503 230.131 35.3766 230.293 35.233C230.454 35.0894 230.551 34.8877 230.564 34.6722C230.586 34.2669 230.65 33.865 230.754 33.4727C230.754 33.4565 230.764 33.4402 230.767 33.424C231.065 32.3265 231.665 31.3344 232.497 30.5597C233.33 29.785 234.363 29.2585 235.479 29.0397C236.595 28.8209 237.75 28.9185 238.814 29.3215C239.877 29.7244 240.807 30.4167 241.498 31.3202C242.189 32.2236 242.613 33.3022 242.724 34.4342C242.834 35.5662 242.625 36.7065 242.122 37.7263C241.618 38.7461 240.84 39.6048 239.874 40.2054C238.908 40.8061 237.794 41.1247 236.656 41.1255Z" fill="#525252"/>
<g clip-path="url(#clip0_1154_12216)">
<path d="M282.188 24.0625V21.625C282.188 21.4095 282.273 21.2028 282.425 21.0505C282.578 20.8981 282.785 20.8125 283 20.8125C283.215 20.8125 283.422 20.8981 283.575 21.0505C283.727 21.2028 283.812 21.4095 283.812 21.625V24.0625C283.812 24.278 283.727 24.4847 283.575 24.637C283.422 24.7894 283.215 24.875 283 24.875C282.785 24.875 282.578 24.7894 282.425 24.637C282.273 24.4847 282.188 24.278 282.188 24.0625ZM289.5 33C289.5 34.2856 289.119 35.5423 288.405 36.6112C287.69 37.6801 286.675 38.5132 285.487 39.0052C284.3 39.4972 282.993 39.6259 281.732 39.3751C280.471 39.1243 279.313 38.5052 278.404 37.5962C277.495 36.6872 276.876 35.529 276.625 34.2681C276.374 33.0072 276.503 31.7003 276.995 30.5126C277.487 29.3248 278.32 28.3097 279.389 27.5954C280.458 26.8812 281.714 26.5 283 26.5C284.723 26.5019 286.376 27.1873 287.594 28.4059C288.813 29.6245 289.498 31.2767 289.5 33ZM287.875 33C287.875 32.0358 287.589 31.0933 287.053 30.2916C286.518 29.4899 285.756 28.8651 284.866 28.4961C283.975 28.1271 282.995 28.0306 282.049 28.2187C281.103 28.4068 280.235 28.8711 279.553 29.5529C278.871 30.2346 278.407 31.1033 278.219 32.0489C278.031 32.9946 278.127 33.9748 278.496 34.8656C278.865 35.7564 279.49 36.5177 280.292 37.0534C281.093 37.5891 282.036 37.875 283 37.875C284.293 37.8737 285.532 37.3596 286.446 36.4457C287.36 35.5317 287.874 34.2925 287.875 33ZM275.925 27.0748C276.078 27.2273 276.284 27.313 276.5 27.313C276.716 27.313 276.922 27.2273 277.075 27.0748C277.227 26.9224 277.313 26.7156 277.313 26.5C277.313 26.2844 277.227 26.0776 277.075 25.9252L275.45 24.3002C275.297 24.1477 275.091 24.062 274.875 24.062C274.659 24.062 274.453 24.1477 274.3 24.3002C274.148 24.4526 274.062 24.6594 274.062 24.875C274.062 25.0906 274.148 25.2974 274.3 25.4498L275.925 27.0748ZM275.925 38.9252L274.3 40.5502C274.148 40.7026 274.062 40.9094 274.062 41.125C274.062 41.3406 274.148 41.5474 274.3 41.6998C274.453 41.8523 274.659 41.938 274.875 41.938C275.091 41.938 275.297 41.8523 275.45 41.6998L277.075 40.0748C277.15 39.9994 277.21 39.9097 277.251 39.8111C277.292 39.7125 277.313 39.6068 277.313 39.5C277.313 39.3932 277.292 39.2875 277.251 39.1889C277.21 39.0903 277.15 39.0006 277.075 38.9252C276.999 38.8497 276.91 38.7898 276.811 38.7489C276.712 38.7081 276.607 38.687 276.5 38.687C276.393 38.687 276.288 38.7081 276.189 38.7489C276.09 38.7898 276.001 38.8497 275.925 38.9252ZM289.5 27.3125C289.607 27.3126 289.712 27.2916 289.811 27.2509C289.91 27.2101 289.999 27.1503 290.075 27.0748L291.7 25.4498C291.852 25.2974 291.938 25.0906 291.938 24.875C291.938 24.6594 291.852 24.4526 291.7 24.3002C291.547 24.1477 291.341 24.062 291.125 24.062C290.909 24.062 290.703 24.1477 290.55 24.3002L288.925 25.9252C288.811 26.0388 288.734 26.1836 288.703 26.3413C288.671 26.499 288.687 26.6625 288.749 26.811C288.81 26.9596 288.915 27.0865 289.048 27.1758C289.182 27.265 289.339 27.3126 289.5 27.3125ZM290.075 38.9252C289.922 38.7727 289.716 38.687 289.5 38.687C289.284 38.687 289.078 38.7727 288.925 38.9252C288.773 39.0776 288.687 39.2844 288.687 39.5C288.687 39.7156 288.773 39.9224 288.925 40.0748L290.55 41.6998C290.626 41.7753 290.715 41.8352 290.814 41.8761C290.913 41.9169 291.018 41.938 291.125 41.938C291.232 41.938 291.337 41.9169 291.436 41.8761C291.535 41.8352 291.624 41.7753 291.7 41.6998C291.775 41.6244 291.835 41.5347 291.876 41.4361C291.917 41.3375 291.938 41.2318 291.938 41.125C291.938 41.0182 291.917 40.9125 291.876 40.8139C291.835 40.7153 291.775 40.6256 291.7 40.5502L290.075 38.9252ZM274.875 33C274.875 32.7845 274.789 32.5778 274.637 32.4255C274.485 32.2731 274.278 32.1875 274.062 32.1875H271.625C271.41 32.1875 271.203 32.2731 271.05 32.4255C270.898 32.5778 270.812 32.7845 270.812 33C270.812 33.2155 270.898 33.4222 271.05 33.5745C271.203 33.7269 271.41 33.8125 271.625 33.8125H274.062C274.278 33.8125 274.485 33.7269 274.637 33.5745C274.789 33.4222 274.875 33.2155 274.875 33ZM283 41.125C282.785 41.125 282.578 41.2106 282.425 41.363C282.273 41.5153 282.188 41.722 282.188 41.9375V44.375C282.188 44.5905 282.273 44.7972 282.425 44.9495C282.578 45.1019 282.785 45.1875 283 45.1875C283.215 45.1875 283.422 45.1019 283.575 44.9495C283.727 44.7972 283.812 44.5905 283.812 44.375V41.9375C283.812 41.722 283.727 41.5153 283.575 41.363C283.422 41.2106 283.215 41.125 283 41.125ZM294.375 32.1875H291.938C291.722 32.1875 291.515 32.2731 291.363 32.4255C291.211 32.5778 291.125 32.7845 291.125 33C291.125 33.2155 291.211 33.4222 291.363 33.5745C291.515 33.7269 291.722 33.8125 291.938 33.8125H294.375C294.59 33.8125 294.797 33.7269 294.95 33.5745C295.102 33.4222 295.188 33.2155 295.188 33C295.188 32.7845 295.102 32.5778 294.95 32.4255C294.797 32.2731 294.59 32.1875 294.375 32.1875Z" fill="#525252"/>
</g>
<path d="M43.7189 95.4454C43.6147 95.3409 43.484 95.2668 43.3408 95.231C43.1977 95.1953 43.0475 95.1991 42.9064 95.2422C41.3571 95.7106 39.7098 95.7499 38.14 95.3559C36.5702 94.9618 35.1367 94.1493 33.9922 93.0049C32.8477 91.8604 32.0352 90.4269 31.6412 88.8571C31.2472 87.2872 31.2865 85.6399 31.7548 84.0907C31.7983 83.9495 31.8025 83.7991 31.7669 83.6558C31.7313 83.5124 31.6573 83.3815 31.5528 83.277C31.4484 83.1726 31.3174 83.0986 31.1741 83.063C31.0307 83.0274 30.8804 83.0316 30.7392 83.075C28.5973 83.7312 26.7169 85.0462 25.3655 86.8329C24.1838 88.4018 23.4629 90.2693 23.284 92.2254C23.105 94.1815 23.4751 96.1487 24.3526 97.9061C25.23 99.6635 26.5802 101.141 28.2513 102.174C29.9224 103.206 31.8482 103.752 33.8125 103.75C36.1041 103.757 38.3347 103.012 40.1622 101.629C41.9489 100.278 43.2638 98.3977 43.92 96.2558C43.963 96.1152 43.9669 95.9655 43.9315 95.8228C43.8961 95.68 43.8226 95.5496 43.7189 95.4454ZM39.1851 100.332C37.4642 101.628 35.333 102.259 33.1838 102.108C31.0346 101.958 29.012 101.036 27.4885 99.5125C25.965 97.9891 25.0431 95.9667 24.8924 93.8175C24.7418 91.6683 25.3725 89.537 26.6686 87.816C27.513 86.7009 28.6046 85.797 29.8576 85.1754C29.7863 85.6763 29.7503 86.1816 29.75 86.6876C29.7529 89.4881 30.8667 92.173 32.8469 94.1532C34.8272 96.1334 37.512 97.2472 40.3125 97.2501C40.8195 97.25 41.3259 97.214 41.8278 97.1425C41.2056 98.3957 40.301 99.4874 39.1851 100.332Z" fill="#525252"/>
<path d="M74.5 85.25H89.5C89.9641 85.25 90.4091 85.4345 90.7373 85.7627C91.0655 86.0909 91.25 86.5359 91.25 87V97.5C91.25 97.9641 91.0655 98.4091 90.7373 98.7373C90.4091 99.0655 89.9641 99.25 89.5 99.25H82.25V101.75H85C85.0663 101.75 85.1299 101.776 85.1768 101.823C85.2236 101.87 85.25 101.934 85.25 102C85.25 102.066 85.2236 102.13 85.1768 102.177C85.1299 102.224 85.0663 102.25 85 102.25H79C78.9337 102.25 78.8701 102.224 78.8232 102.177C78.7764 102.13 78.75 102.066 78.75 102C78.75 101.934 78.7764 101.87 78.8232 101.823C78.8701 101.776 78.9337 101.75 79 101.75H81.75V99.25H74.5C74.0359 99.25 73.5909 99.0655 73.2627 98.7373C72.9345 98.4091 72.75 97.9641 72.75 97.5V87C72.75 86.5359 72.9345 86.0909 73.2627 85.7627C73.5909 85.4345 74.0359 85.25 74.5 85.25ZM73.25 97.5C73.25 97.8315 73.3818 98.1494 73.6162 98.3838C73.8506 98.6182 74.1685 98.75 74.5 98.75H89.5C89.8315 98.75 90.1494 98.6182 90.3838 98.3838C90.6182 98.1494 90.75 97.8315 90.75 97.5V95.5H73.25V97.5ZM74.5 85.75C74.1685 85.75 73.8506 85.8818 73.6162 86.1162C73.3818 86.3506 73.25 86.6685 73.25 87V95H90.75V87C90.75 86.6685 90.6182 86.3506 90.3838 86.1162C90.1494 85.8818 89.8315 85.75 89.5 85.75H74.5Z" fill="#292929" stroke="#666666"/>
<path d="M134.8 92.7557L129.334 83.2638C129.198 83.0312 129.003 82.8384 128.769 82.7045C128.535 82.5705 128.27 82.5 128 82.5C127.73 82.5 127.465 82.5705 127.231 82.7045C126.997 82.8384 126.802 83.0312 126.666 83.2638L121.2 92.7557C121.069 92.9806 120.999 93.2364 120.999 93.4969C120.999 93.7574 121.069 94.0132 121.2 94.2382C121.335 94.4721 121.529 94.666 121.764 94.7999C121.998 94.9338 122.264 95.0028 122.534 95H133.466C133.735 95.0026 134.001 94.9334 134.235 94.7996C134.47 94.6657 134.664 94.4719 134.799 94.2382C134.93 94.0134 135 93.7576 135 93.4971C135 93.2366 134.931 92.9807 134.8 92.7557ZM133.933 93.7375C133.885 93.8188 133.817 93.886 133.735 93.9321C133.653 93.9782 133.56 94.0017 133.466 94H122.534C122.44 94.0017 122.347 93.9782 122.265 93.9321C122.183 93.886 122.115 93.8188 122.067 93.7375C122.024 93.6645 122.001 93.5812 122.001 93.4963C122.001 93.4114 122.024 93.3281 122.067 93.255L127.532 83.7632C127.581 83.6823 127.65 83.6153 127.732 83.5689C127.814 83.5224 127.907 83.498 128.001 83.498C128.096 83.498 128.188 83.5224 128.271 83.5689C128.353 83.6153 128.421 83.6823 128.47 83.7632L133.936 93.255C133.978 93.3283 134.001 93.4118 134 93.4966C134 93.5815 133.977 93.6647 133.933 93.7375ZM127.5 90V87.5C127.5 87.3674 127.553 87.2403 127.646 87.1465C127.74 87.0527 127.867 87 128 87C128.133 87 128.26 87.0527 128.354 87.1465C128.447 87.2403 128.5 87.3674 128.5 87.5V90C128.5 90.1326 128.447 90.2598 128.354 90.3536C128.26 90.4474 128.133 90.5 128 90.5C127.867 90.5 127.74 90.4474 127.646 90.3536C127.553 90.2598 127.5 90.1326 127.5 90ZM128.75 92.25C128.75 92.3984 128.706 92.5434 128.624 92.6667C128.541 92.7901 128.424 92.8862 128.287 92.943C128.15 92.9997 127.999 93.0146 127.854 92.9856C127.708 92.9567 127.575 92.8853 127.47 92.7804C127.365 92.6755 127.293 92.5418 127.264 92.3964C127.235 92.2509 127.25 92.1001 127.307 91.963C127.364 91.826 127.46 91.7088 127.583 91.6264C127.707 91.544 127.852 91.5 128 91.5C128.199 91.5 128.39 91.5791 128.53 91.7197C128.671 91.8604 128.75 92.0511 128.75 92.25Z" fill="#525252"/>
<path d="M186.372 88.6289C186.122 87.2856 185.51 86.0359 184.603 85.0148C183.695 83.9937 182.525 83.24 181.22 82.835C179.916 82.4301 178.525 82.3893 177.198 82.717C175.872 83.0448 174.66 83.7286 173.694 84.6947C172.728 85.6609 172.044 86.8725 171.717 88.1989C171.389 89.5253 171.43 90.916 171.835 92.2209C172.24 93.5258 172.993 94.6953 174.014 95.6031C175.035 96.511 176.285 97.1226 177.628 97.372C177.878 98.7153 178.489 99.965 179.397 100.986C180.305 102.007 181.475 102.761 182.779 103.166C184.084 103.571 185.475 103.612 186.802 103.284C188.128 102.956 189.34 102.272 190.306 101.306C191.272 100.34 191.956 99.1284 192.283 97.802C192.611 96.4756 192.57 95.0849 192.165 93.78C191.76 92.4751 191.007 91.3056 189.986 90.3978C188.965 89.4899 187.715 88.8783 186.372 88.6289ZM179.44 93.7505L181.25 95.5608C180.536 95.8518 179.771 96.0011 179 96.0005C178.999 95.229 179.149 94.4649 179.44 93.7505ZM182.604 94.7939L180.207 92.3967C180.546 91.9468 180.946 91.5463 181.396 91.207L183.793 93.6042C183.454 94.0541 183.054 94.4546 182.604 94.7939ZM184.56 92.2505L182.75 90.4401C183.464 90.1491 184.229 89.9998 185 90.0005C185.001 90.7719 184.851 91.536 184.56 92.2505ZM173 90.0005C172.997 88.538 173.528 87.1249 174.494 86.0267C175.46 84.9284 176.793 84.2207 178.244 84.0364C179.695 83.8522 181.163 84.2042 182.373 85.0262C183.582 85.8482 184.45 87.0837 184.812 88.5005C182.889 88.551 181.059 89.3378 179.699 90.6985C178.34 92.0591 177.554 93.8899 177.505 95.813C176.216 95.4796 175.075 94.728 174.26 93.676C173.444 92.6241 173.001 91.3313 173 90.0005ZM185 102C183.67 101.999 182.377 101.557 181.326 100.743C180.274 99.9283 179.522 98.788 179.187 97.5005C181.111 97.4511 182.943 96.6648 184.304 95.304C185.664 93.9432 186.451 92.1118 186.5 90.188C187.917 90.5507 189.152 91.4183 189.974 92.6279C190.796 93.8374 191.148 95.3055 190.964 96.7563C190.78 98.2071 190.072 99.5406 188.974 100.506C187.876 101.472 186.462 102.003 185 102Z" fill="#525252"/>
<path d="M231.999 85.5C233.988 85.5025 235.895 86.2931 237.301 87.6992C238.619 89.0175 239.396 90.7758 239.49 92.6289L239.5 93.001C239.5 94.484 239.06 95.9339 238.236 97.167C237.412 98.4003 236.241 99.361 234.87 99.9287C233.5 100.496 231.992 100.645 230.537 100.355C229.082 100.066 227.745 99.3526 226.696 98.3037C225.647 97.2548 224.934 95.9177 224.645 94.4629C224.355 93.0081 224.504 91.5003 225.071 90.1299C225.639 88.7595 226.6 87.5878 227.833 86.7637C229.066 85.9397 230.516 85.5002 231.999 85.5Z" fill="#DDDBFA" stroke="#281ED2"/>
<path d="M282 85C280.418 85 278.871 85.4692 277.555 86.3482C276.24 87.2273 275.214 88.4767 274.609 89.9385C274.003 91.4003 273.845 93.0089 274.154 94.5607C274.462 96.1126 275.224 97.538 276.343 98.6569C277.462 99.7757 278.887 100.538 280.439 100.846C281.991 101.155 283.6 100.997 285.061 100.391C286.523 99.7855 287.773 98.7602 288.652 97.4446C289.531 96.129 290 94.5822 290 93C289.998 90.879 289.154 88.8454 287.654 87.3456C286.155 85.8458 284.121 85.0022 282 85ZM282 99.7692C280.661 99.7692 279.352 99.3722 278.239 98.6284C277.126 97.8846 276.258 96.8274 275.746 95.5905C275.234 94.3536 275.1 92.9925 275.361 91.6794C275.622 90.3663 276.267 89.1601 277.213 88.2134C278.16 87.2667 279.366 86.622 280.679 86.3608C281.992 86.0996 283.354 86.2337 284.59 86.746C285.827 87.2584 286.885 88.126 287.628 89.2392C288.372 90.3524 288.769 91.6612 288.769 93C288.767 94.7947 288.053 96.5153 286.784 97.7843C285.515 99.0534 283.795 99.7672 282 99.7692Z" fill="#4F46E5"/>
<path d="M332 85C330.418 85 328.871 85.4692 327.555 86.3482C326.24 87.2273 325.214 88.4767 324.609 89.9385C324.003 91.4003 323.845 93.0089 324.154 94.5607C324.462 96.1126 325.224 97.538 326.343 98.6569C327.462 99.7757 328.887 100.538 330.439 100.846C331.991 101.155 333.6 100.997 335.061 100.391C336.523 99.7855 337.773 98.7602 338.652 97.4446C339.531 96.129 340 94.5822 340 93C339.998 90.879 339.154 88.8454 337.654 87.3456C336.155 85.8458 334.121 85.0022 332 85ZM335.512 91.5892L331.205 95.8969C331.147 95.9541 331.08 95.9995 331.005 96.0305C330.93 96.0615 330.85 96.0774 330.769 96.0774C330.688 96.0774 330.608 96.0615 330.534 96.0305C330.459 95.9995 330.391 95.9541 330.334 95.8969L328.488 94.0508C328.372 93.9353 328.307 93.7787 328.307 93.6154C328.307 93.4521 328.372 93.2955 328.488 93.18C328.603 93.0645 328.76 92.9997 328.923 92.9997C329.086 92.9997 329.243 93.0645 329.358 93.18L330.769 94.5915L334.642 90.7185C334.699 90.6613 334.767 90.6159 334.841 90.585C334.916 90.554 334.996 90.5381 335.077 90.5381C335.158 90.5381 335.238 90.554 335.313 90.585C335.387 90.6159 335.455 90.6613 335.512 90.7185C335.569 90.7756 335.615 90.8435 335.646 90.9182C335.677 90.9929 335.693 91.073 335.693 91.1538C335.693 91.2347 335.677 91.3148 335.646 91.3895C335.615 91.4642 335.569 91.5321 335.512 91.5892Z" fill="#4F46E5"/>
<path d="M34.4541 144.704C37.5704 144.704 40.5591 145.942 42.7627 148.146C44.9662 150.349 46.2041 153.338 46.2041 156.454C46.2041 157.997 45.9 159.525 45.3096 160.95C44.7191 162.376 43.8538 163.672 42.7627 164.763C41.6716 165.854 40.3758 166.719 38.9502 167.31C37.5247 167.9 35.997 168.204 34.4541 168.204C32.9112 168.204 31.3835 167.9 29.958 167.31C28.5324 166.719 27.2366 165.854 26.1455 164.763C25.0544 163.672 24.1891 162.376 23.5986 160.95C23.0082 159.525 22.7041 157.997 22.7041 156.454C22.7041 153.338 23.942 150.349 26.1455 148.146C28.3491 145.942 31.3378 144.704 34.4541 144.704Z" stroke="#0A0836" stroke-width="1.5" stroke-linecap="round" stroke-linejoin="round"/>
<path d="M34.8788 160.687V151.312L31.6565 153.656" stroke="#0A0836" stroke-width="1.5" stroke-linecap="round" stroke-linejoin="round"/>
<path d="M71.4131 156C71.4131 149.048 77.0482 143.413 84 143.413C90.9519 143.413 96.5869 149.048 96.5869 156C96.5869 162.952 90.9519 168.587 84 168.587C77.0482 168.587 71.4131 162.952 71.4131 156ZM85.9364 150.836C85.9365 150.658 85.8872 150.482 85.7939 150.33C85.7006 150.178 85.567 150.054 85.4079 149.973C85.2487 149.892 85.0703 149.856 84.8922 149.87C84.7141 149.884 84.5434 149.947 84.3989 150.053L80.8488 152.634C80.6409 152.785 80.5016 153.013 80.4614 153.267C80.4212 153.52 80.4835 153.78 80.6345 153.987C80.7854 154.195 81.0128 154.335 81.2665 154.375C81.5203 154.415 81.7796 154.353 81.9874 154.202L84.0013 152.738V161.164C84.0013 161.421 84.1033 161.667 84.2849 161.849C84.4665 162.03 84.7127 162.132 84.9695 162.132C85.2263 162.132 85.4726 162.03 85.6542 161.849C85.8357 161.667 85.9377 161.421 85.9377 161.164L85.9364 150.836Z" fill="#0A0836"/>
<path d="M134.023 144.273C137.14 144.273 140.128 145.511 142.332 147.715C144.536 149.918 145.773 152.907 145.773 156.023C145.773 157.566 145.469 159.094 144.879 160.52C144.288 161.945 143.423 163.241 142.332 164.332C141.241 165.423 139.945 166.288 138.52 166.879C137.094 167.469 135.566 167.773 134.023 167.773C132.481 167.773 130.953 167.469 129.527 166.879C128.102 166.288 126.806 165.423 125.715 164.332C124.624 163.241 123.758 161.945 123.168 160.52C122.578 159.094 122.273 157.566 122.273 156.023C122.273 152.907 123.511 149.918 125.715 147.715C127.918 145.511 130.907 144.273 134.023 144.273Z" stroke="#0A0836" stroke-width="1.5" stroke-linecap="round" stroke-linejoin="round"/>
<path d="M130.524 154.018C130.524 150.304 136.941 150.304 136.941 154.018C136.941 156.821 132.748 159.238 130.524 160.768C130.524 160.768 134.695 160.172 137.476 160.768" stroke="#0A0A0A" stroke-width="1.5" stroke-linecap="round" stroke-linejoin="round"/>
<path d="M171.601 156C171.601 149.152 177.152 143.601 184 143.601C190.848 143.601 196.399 149.152 196.399 156C196.399 162.848 190.848 168.399 184 168.399C177.152 168.399 171.601 162.848 171.601 156ZM181.774 153.885C181.774 153.149 182.038 152.669 182.376 152.365C182.731 152.046 183.228 151.867 183.756 151.867C184.284 151.867 184.781 152.045 185.136 152.365C185.473 152.669 185.736 153.149 185.736 153.885C185.736 154.981 185.019 156.137 183.841 157.324C182.961 158.211 181.954 158.993 181.05 159.694C180.761 159.918 180.486 160.134 180.223 160.343C180.069 160.466 179.957 160.635 179.903 160.825C179.848 161.015 179.855 161.217 179.92 161.403C179.986 161.59 180.108 161.751 180.269 161.865C180.43 161.979 180.623 162.041 180.821 162.04H187.179C187.432 162.04 187.675 161.94 187.854 161.761C188.033 161.582 188.133 161.34 188.133 161.087C188.133 160.834 188.033 160.591 187.854 160.412C187.675 160.233 187.432 160.133 187.179 160.133H183.568C184.118 159.679 184.682 159.185 185.195 158.667C186.444 157.408 187.643 155.779 187.643 153.885C187.643 152.639 187.173 151.634 186.411 150.947C185.665 150.276 184.696 149.959 183.756 149.959C182.816 149.959 181.846 150.276 181.099 150.947C180.336 151.634 179.867 152.639 179.867 153.885C179.867 154.138 179.967 154.381 180.146 154.559C180.325 154.738 180.568 154.839 180.821 154.839C181.074 154.839 181.316 154.738 181.495 154.559C181.674 154.381 181.774 154.138 181.774 153.885Z" fill="#0A0836"/>
<path d="M233.994 144.153C237.111 144.153 240.099 145.391 242.303 147.595C244.507 149.798 245.744 152.787 245.744 155.903C245.744 157.446 245.44 158.974 244.85 160.399C244.259 161.825 243.394 163.121 242.303 164.212C241.212 165.303 239.916 166.168 238.491 166.759C237.065 167.349 235.537 167.653 233.994 167.653C232.452 167.653 230.924 167.349 229.498 166.759C228.073 166.168 226.777 165.303 225.686 164.212C224.595 163.121 223.729 161.825 223.139 160.399C222.549 158.974 222.244 157.446 222.244 155.903C222.244 152.787 223.482 149.798 225.686 147.595C227.889 145.391 230.878 144.153 233.994 144.153Z" stroke="#0A0836" stroke-width="1.5" stroke-linecap="round" stroke-linejoin="round"/>
<path d="M230.322 153.472C230.322 150.119 237.678 150.119 237.678 153.472C237.678 153.472 237.678 156.001 234 156.001C237.678 156.001 237.678 158.53 237.678 158.53C237.678 161.883 230.322 161.883 230.322 158.53" stroke="#0A0A0A" stroke-width="1.5" stroke-linecap="round" stroke-linejoin="round"/>
<path d="M271.679 156C271.679 149.195 277.195 143.679 284 143.679C290.805 143.679 296.321 149.195 296.321 156C296.321 162.805 290.805 168.321 284 168.321C277.195 168.321 271.679 162.805 271.679 156ZM288.107 153.465C288.107 152.283 287.535 151.38 286.721 150.802C285.935 150.245 284.941 149.997 284 149.997C283.059 149.997 282.065 150.245 281.279 150.802C280.467 151.379 279.893 152.283 279.893 153.465C279.893 153.716 279.993 153.957 280.17 154.135C280.348 154.313 280.589 154.413 280.841 154.413C281.092 154.413 281.333 154.313 281.511 154.135C281.689 153.957 281.788 153.716 281.788 153.465C281.788 152.967 282.006 152.612 282.376 152.348C282.775 152.065 283.362 151.893 284 151.893C284.638 151.893 285.225 152.065 285.624 152.348C285.993 152.609 286.209 152.962 286.212 153.456L286.209 153.49C286.205 153.528 286.199 153.591 286.182 153.669C286.141 153.867 286.066 154.058 285.96 154.231C285.75 154.568 285.275 155.052 284 155.052C283.749 155.052 283.508 155.152 283.33 155.33C283.152 155.508 283.052 155.749 283.052 156C283.052 156.251 283.152 156.493 283.33 156.67C283.508 156.848 283.749 156.948 284 156.948C285.276 156.948 285.75 157.432 285.96 157.769C286.103 158.004 286.189 158.27 286.212 158.544C286.209 159.037 285.993 159.391 285.624 159.652C285.225 159.935 284.638 160.107 284 160.107C283.362 160.107 282.775 159.935 282.376 159.652C282.006 159.388 281.788 159.033 281.788 158.535C281.788 158.284 281.689 158.043 281.511 157.865C281.333 157.687 281.092 157.587 280.841 157.587C280.589 157.587 280.348 157.687 280.17 157.865C279.993 158.043 279.893 158.284 279.893 158.535C279.893 159.717 280.467 160.62 281.279 161.198C282.065 161.755 283.059 162.003 284 162.003C284.941 162.003 285.935 161.755 286.721 161.198C287.533 160.622 288.107 159.717 288.107 158.535V158.533C288.081 157.907 287.896 157.299 287.569 156.766C287.39 156.48 287.17 156.222 286.915 156C287.182 155.768 287.398 155.507 287.569 155.234C287.896 154.701 288.081 154.093 288.107 153.468V153.465Z" fill="#0A0836"/>
<path d="M24.0367 211.224C23.9955 211.189 23.947 211.161 23.8939 211.142C23.8409 211.124 23.7844 211.115 23.7277 211.117C23.671 211.118 23.6152 211.13 23.5634 211.151C23.5116 211.172 23.4649 211.202 23.4259 211.24C23.3869 211.277 23.3565 211.321 23.3362 211.369C23.316 211.418 23.3064 211.469 23.308 211.52C23.3096 211.572 23.3224 211.623 23.3456 211.67C23.3688 211.717 23.4019 211.759 23.4432 211.795L27.3309 215.132C27.4111 215.201 27.5173 215.239 27.6277 215.239C27.7381 215.239 27.8443 215.201 27.9245 215.132L31.8127 211.795C31.8548 211.76 31.8888 211.717 31.9128 211.67C31.9367 211.623 31.9501 211.572 31.9521 211.52C31.9542 211.468 31.9448 211.416 31.9246 211.367C31.9044 211.318 31.8738 211.274 31.8345 211.236C31.7952 211.198 31.748 211.168 31.6957 211.147C31.6434 211.126 31.587 211.114 31.5298 211.113C31.4726 211.112 31.4157 211.121 31.3625 211.14C31.3092 211.159 31.2606 211.188 31.2196 211.224L27.6277 214.307L24.0367 211.224Z" fill="#130E67"/>
<path d="M71.0594 216.348C70.9802 216.123 70.9802 215.877 71.0594 215.652C71.8305 213.684 73.1393 212.001 74.82 210.816C76.5007 209.632 78.4776 209 80.5 209C82.5224 209 84.4993 209.632 86.18 210.816C87.8607 212.001 89.1695 213.684 89.9406 215.652C90.0198 215.877 90.0198 216.123 89.9406 216.348C89.1695 218.316 87.8607 219.999 86.18 221.184C84.4993 222.368 82.5224 223 80.5 223C78.4776 223 76.5007 222.368 74.82 221.184C73.1393 219.999 71.8305 218.316 71.0594 216.348Z" stroke="#ADADAD" stroke-width="1.3" stroke-linecap="round" stroke-linejoin="round"/>
<path d="M80.5001 219.001C82.0741 219.001 83.35 217.657 83.35 216C83.35 214.343 82.0741 213 80.5001 213C78.9262 213 77.6503 214.343 77.6503 216C77.6503 217.657 78.9262 219.001 80.5001 219.001Z" stroke="#ADADAD" stroke-width="1.3" stroke-linecap="round" stroke-linejoin="round"/>
<path d="M122 214C122.859 214.961 123.87 215.796 125 216.478M125 216.478C126.216 217.211 127.575 217.72 129 217.978C130.321 218.213 131.679 218.213 133 217.978C134.425 217.72 135.784 217.211 137 216.478M125 216.478L123.5 218.154M140 214C139.141 214.961 138.13 215.796 137 216.478M137 216.478L138.5 218.154M129 217.978L128.5 220M133 217.978L133.5 220" stroke="#ADADAD" stroke-width="1.3" stroke-linecap="round" stroke-linejoin="round"/>
<path d="M181.707 210.866L176.587 216.199C176.558 216.23 176.522 216.255 176.484 216.271C176.445 216.288 176.403 216.297 176.361 216.297C176.319 216.297 176.277 216.288 176.238 216.271C176.2 216.255 176.164 216.23 176.135 216.199L173.895 213.866C173.835 213.803 173.801 213.719 173.801 213.63C173.801 213.542 173.835 213.457 173.895 213.394C173.955 213.332 174.036 213.297 174.121 213.297C174.206 213.297 174.287 213.332 174.348 213.394L176.361 215.492L181.254 210.395C181.314 210.332 181.396 210.297 181.481 210.297C181.566 210.297 181.647 210.332 181.707 210.395C181.767 210.457 181.801 210.542 181.801 210.63C181.801 210.719 181.767 210.804 181.707 210.866Z" fill="#0A0A0A"/>
<path d="M234.386 209.2L225.755 218.19C225.705 218.242 225.646 218.283 225.58 218.312C225.515 218.34 225.445 218.355 225.374 218.355C225.303 218.355 225.233 218.34 225.167 218.312C225.102 218.283 225.042 218.242 224.992 218.19L221.216 214.257C221.115 214.151 221.058 214.008 221.058 213.859C221.058 213.71 221.115 213.567 221.216 213.462C221.318 213.356 221.455 213.297 221.598 213.297C221.741 213.297 221.878 213.356 221.98 213.462L225.374 216.998L233.623 208.405C233.724 208.299 233.861 208.24 234.004 208.24C234.147 208.24 234.285 208.299 234.386 208.405C234.487 208.51 234.544 208.653 234.544 208.802C234.544 208.952 234.487 209.094 234.386 209.2Z" fill="#0A0A0A" stroke="#0A0A0A" stroke-width="0.5"/>
<path d="M288.822 210.052C287.007 208.255 284.555 207.247 282 207.25H281.9C279.331 207.276 276.877 208.315 275.07 210.141C273.263 211.967 272.25 214.431 272.25 217C272.25 221.031 274.742 224.412 278.752 225.828C279.205 225.988 279.689 226.037 280.164 225.97C280.639 225.904 281.091 225.725 281.483 225.448C281.874 225.171 282.194 224.804 282.414 224.378C282.635 223.952 282.75 223.48 282.75 223C282.75 222.602 282.908 222.221 283.189 221.939C283.471 221.658 283.852 221.5 284.25 221.5H288.582C289.263 221.503 289.924 221.274 290.456 220.849C290.988 220.425 291.359 219.832 291.507 219.168C291.675 218.429 291.756 217.674 291.75 216.918C291.74 215.636 291.477 214.37 290.974 213.191C290.472 212.013 289.74 210.946 288.822 210.052ZM290.041 218.838C289.966 219.168 289.781 219.464 289.516 219.675C289.251 219.887 288.921 220.001 288.582 220H284.25C283.454 220 282.691 220.316 282.129 220.879C281.566 221.441 281.25 222.204 281.25 223C281.25 223.24 281.192 223.476 281.082 223.688C280.971 223.901 280.812 224.084 280.616 224.223C280.42 224.361 280.195 224.45 279.957 224.483C279.72 224.517 279.478 224.492 279.252 224.413C275.858 223.216 273.75 220.375 273.75 217C273.75 214.827 274.607 212.741 276.136 211.196C277.665 209.652 279.741 208.772 281.915 208.75H281.999C284.172 208.758 286.255 209.621 287.799 211.151C289.342 212.681 290.222 214.757 290.249 216.93C290.255 217.571 290.186 218.212 290.045 218.838H290.041ZM283.125 212.125C283.125 212.348 283.059 212.565 282.935 212.75C282.812 212.935 282.636 213.079 282.431 213.164C282.225 213.25 281.999 213.272 281.781 213.228C281.562 213.185 281.362 213.078 281.205 212.921C281.047 212.763 280.94 212.563 280.897 212.344C280.853 212.126 280.875 211.9 280.961 211.694C281.046 211.489 281.19 211.313 281.375 211.19C281.56 211.066 281.777 211 282 211C282.298 211 282.585 211.119 282.795 211.33C283.006 211.54 283.125 211.827 283.125 212.125ZM279 214.375C279 214.598 278.934 214.815 278.81 215C278.687 215.185 278.511 215.329 278.306 215.414C278.1 215.5 277.874 215.522 277.656 215.478C277.437 215.435 277.237 215.328 277.08 215.171C276.922 215.013 276.815 214.813 276.772 214.594C276.728 214.376 276.75 214.15 276.836 213.944C276.921 213.739 277.065 213.563 277.25 213.44C277.435 213.316 277.652 213.25 277.875 213.25C278.173 213.25 278.46 213.369 278.67 213.58C278.881 213.79 279 214.077 279 214.375ZM279 219.625C279 219.848 278.934 220.065 278.81 220.25C278.687 220.435 278.511 220.579 278.306 220.664C278.1 220.75 277.874 220.772 277.656 220.728C277.437 220.685 277.237 220.578 277.08 220.421C276.922 220.263 276.815 220.063 276.772 219.844C276.728 219.626 276.75 219.4 276.836 219.194C276.921 218.989 277.065 218.813 277.25 218.69C277.435 218.566 277.652 218.5 277.875 218.5C278.173 218.5 278.46 218.619 278.67 218.83C278.881 219.04 279 219.327 279 219.625ZM287.25 214.375C287.25 214.598 287.184 214.815 287.06 215C286.937 215.185 286.761 215.329 286.556 215.414C286.35 215.5 286.124 215.522 285.906 215.478C285.687 215.435 285.487 215.328 285.33 215.171C285.172 215.013 285.065 214.813 285.022 214.594C284.978 214.376 285 214.15 285.086 213.944C285.171 213.739 285.315 213.563 285.5 213.44C285.685 213.316 285.902 213.25 286.125 213.25C286.423 213.25 286.71 213.369 286.92 213.58C287.131 213.79 287.25 214.077 287.25 214.375Z" fill="#525252"/>
<path d="M326.48 213.827L322.672 217L326.48 220.173C326.558 220.236 326.622 220.313 326.67 220.401C326.718 220.488 326.747 220.584 326.758 220.684C326.768 220.783 326.758 220.883 326.728 220.978C326.699 221.074 326.651 221.162 326.587 221.239C326.524 221.316 326.445 221.379 326.357 221.425C326.268 221.471 326.171 221.498 326.072 221.507C325.973 221.515 325.873 221.503 325.778 221.472C325.683 221.441 325.595 221.391 325.52 221.326L321.02 217.576C320.936 217.505 320.868 217.417 320.821 217.318C320.774 217.218 320.75 217.109 320.75 217C320.75 216.89 320.774 216.781 320.821 216.681C320.868 216.582 320.936 216.494 321.02 216.423L325.52 212.673C325.673 212.546 325.87 212.485 326.068 212.503C326.266 212.521 326.449 212.617 326.577 212.77C326.704 212.923 326.765 213.12 326.747 213.318C326.729 213.516 326.633 213.699 326.48 213.827ZM342.98 216.423L338.48 212.673C338.404 212.61 338.317 212.563 338.223 212.534C338.129 212.504 338.03 212.494 337.932 212.503C337.834 212.512 337.738 212.54 337.651 212.586C337.564 212.632 337.486 212.694 337.423 212.77C337.296 212.923 337.235 213.12 337.253 213.318C337.271 213.516 337.367 213.699 337.52 213.827L341.328 217L337.52 220.173C337.442 220.236 337.378 220.313 337.33 220.401C337.282 220.488 337.253 220.584 337.242 220.684C337.232 220.783 337.242 220.883 337.272 220.978C337.301 221.074 337.349 221.162 337.413 221.239C337.476 221.316 337.555 221.379 337.643 221.425C337.732 221.471 337.829 221.498 337.928 221.507C338.027 221.515 338.127 221.503 338.222 221.472C338.317 221.441 338.405 221.391 338.48 221.326L342.98 217.576C343.064 217.505 343.132 217.417 343.179 217.318C343.226 217.218 343.25 217.109 343.25 217C343.25 216.89 343.226 216.781 343.179 216.681C343.132 216.582 343.064 216.494 342.98 216.423ZM335.256 208.045C335.163 208.011 335.065 207.996 334.967 208.001C334.868 208.005 334.772 208.029 334.682 208.071C334.593 208.112 334.513 208.171 334.447 208.244C334.38 208.316 334.329 208.402 334.295 208.494L328.295 224.994C328.261 225.087 328.246 225.185 328.25 225.284C328.255 225.382 328.278 225.479 328.32 225.568C328.362 225.657 328.421 225.738 328.493 225.804C328.566 225.871 328.651 225.922 328.744 225.956C328.826 225.985 328.913 226 329 226C329.154 226 329.304 225.953 329.43 225.864C329.557 225.776 329.652 225.651 329.705 225.506L335.705 209.006C335.739 208.913 335.754 208.815 335.749 208.717C335.745 208.618 335.721 208.522 335.679 208.432C335.638 208.343 335.579 208.263 335.506 208.197C335.434 208.13 335.349 208.079 335.256 208.045Z" fill="#525252"/>
<path d="M40.7806 276.531L34.0306 283.281C33.8899 283.422 33.699 283.501 33.5 283.501C33.301 283.501 33.1101 283.422 32.9694 283.281C32.8286 283.14 32.7496 282.949 32.7496 282.75C32.7496 282.551 32.8286 282.361 32.9694 282.22L38.4397 276.75H23.75C23.5511 276.75 23.3603 276.671 23.2197 276.531C23.079 276.39 23 276.199 23 276C23 275.802 23.079 275.611 23.2197 275.47C23.3603 275.329 23.5511 275.25 23.75 275.25H38.4397L32.9694 269.781C32.8286 269.64 32.7496 269.449 32.7496 269.25C32.7496 269.051 32.8286 268.861 32.9694 268.72C33.1101 268.579 33.301 268.5 33.5 268.5C33.699 268.5 33.8899 268.579 34.0306 268.72L40.7806 275.47C40.8504 275.539 40.9057 275.622 40.9434 275.713C40.9812 275.804 41.0006 275.902 41.0006 276C41.0006 276.099 40.9812 276.197 40.9434 276.288C40.9057 276.379 40.8504 276.461 40.7806 276.531Z" fill="#0A0A0A"/>
<path d="M85 274.5H89.5C89.8978 274.5 90.2794 274.342 90.5607 274.061C90.842 273.779 91 273.398 91 273V268.5C91 268.102 90.842 267.721 90.5607 267.439C90.2794 267.158 89.8978 267 89.5 267H85C84.6022 267 84.2206 267.158 83.9393 267.439C83.658 267.721 83.5 268.102 83.5 268.5V270H82C81.4033 270 80.831 270.237 80.409 270.659C79.9871 271.081 79.75 271.653 79.75 272.25V275.25H76.75V274.5C76.75 274.102 76.592 273.721 76.3107 273.439C76.0294 273.158 75.6478 273 75.25 273H72.25C71.8522 273 71.4706 273.158 71.1893 273.439C70.908 273.721 70.75 274.102 70.75 274.5V277.5C70.75 277.898 70.908 278.279 71.1893 278.561C71.4706 278.842 71.8522 279 72.25 279H75.25C75.6478 279 76.0294 278.842 76.3107 278.561C76.592 278.279 76.75 277.898 76.75 277.5V276.75H79.75V279.75C79.75 280.347 79.9871 280.919 80.409 281.341C80.831 281.763 81.4033 282 82 282H83.5V283.5C83.5 283.898 83.658 284.279 83.9393 284.561C84.2206 284.842 84.6022 285 85 285H89.5C89.8978 285 90.2794 284.842 90.5607 284.561C90.842 284.279 91 283.898 91 283.5V279C91 278.602 90.842 278.221 90.5607 277.939C90.2794 277.658 89.8978 277.5 89.5 277.5H85C84.6022 277.5 84.2206 277.658 83.9393 277.939C83.658 278.221 83.5 278.602 83.5 279V280.5H82C81.8011 280.5 81.6103 280.421 81.4697 280.28C81.329 280.14 81.25 279.949 81.25 279.75V272.25C81.25 272.051 81.329 271.86 81.4697 271.72C81.6103 271.579 81.8011 271.5 82 271.5H83.5V273C83.5 273.398 83.658 273.779 83.9393 274.061C84.2206 274.342 84.6022 274.5 85 274.5ZM75.25 277.5H72.25V274.5H75.25V277.5ZM85 279H89.5V283.5H85V279ZM85 268.5H89.5V273H85V268.5Z" fill="#525252"/>
<path d="M141.75 283.5C141.75 283.699 141.671 283.89 141.53 284.03C141.39 284.171 141.199 284.25 141 284.25H123C122.801 284.25 122.61 284.171 122.47 284.03C122.329 283.89 122.25 283.699 122.25 283.5V268.5C122.25 268.301 122.329 268.11 122.47 267.97C122.61 267.829 122.801 267.75 123 267.75C123.199 267.75 123.39 267.829 123.53 267.97C123.671 268.11 123.75 268.301 123.75 268.5V278.69L128.469 273.969C128.539 273.9 128.622 273.844 128.713 273.807C128.804 273.769 128.901 273.749 129 273.749C129.099 273.749 129.196 273.769 129.287 273.807C129.378 273.844 129.461 273.9 129.531 273.969L132 276.44L136.94 271.5H135C134.801 271.5 134.61 271.421 134.47 271.28C134.329 271.14 134.25 270.949 134.25 270.75C134.25 270.551 134.329 270.36 134.47 270.22C134.61 270.079 134.801 270 135 270H138.75C138.949 270 139.14 270.079 139.28 270.22C139.421 270.36 139.5 270.551 139.5 270.75V274.5C139.5 274.699 139.421 274.89 139.28 275.03C139.14 275.171 138.949 275.25 138.75 275.25C138.551 275.25 138.36 275.171 138.22 275.03C138.079 274.89 138 274.699 138 274.5V272.56L132.531 278.031C132.461 278.1 132.378 278.156 132.287 278.193C132.196 278.231 132.099 278.251 132 278.251C131.901 278.251 131.804 278.231 131.713 278.193C131.622 278.156 131.539 278.1 131.469 278.031L129 275.56L123.75 280.81V282.75H141C141.199 282.75 141.39 282.829 141.53 282.97C141.671 283.11 141.75 283.301 141.75 283.5Z" fill="#525252"/>
<path d="M186.5 285.75C186.5 285.949 186.421 286.14 186.28 286.281C186.14 286.421 185.949 286.5 185.75 286.5H178.25C178.051 286.5 177.86 286.421 177.72 286.281C177.579 286.14 177.5 285.949 177.5 285.75C177.5 285.552 177.579 285.361 177.72 285.22C177.86 285.079 178.051 285 178.25 285H185.75C185.949 285 186.14 285.079 186.28 285.22C186.421 285.361 186.5 285.552 186.5 285.75ZM190.25 273.75C190.253 275.001 189.971 276.235 189.424 277.36C188.878 278.484 188.081 279.469 187.096 280.239C186.912 280.38 186.763 280.562 186.659 280.769C186.556 280.977 186.501 281.206 186.5 281.438V282C186.5 282.398 186.342 282.78 186.061 283.061C185.779 283.342 185.398 283.5 185 283.5H179C178.602 283.5 178.221 283.342 177.939 283.061C177.658 282.78 177.5 282.398 177.5 282V281.438C177.5 281.209 177.447 280.982 177.346 280.777C177.245 280.571 177.098 280.391 176.916 280.251C175.933 279.486 175.138 278.507 174.589 277.389C174.041 276.27 173.754 275.042 173.75 273.796C173.726 269.328 177.337 265.607 181.801 265.5C182.901 265.474 183.995 265.668 185.019 266.07C186.043 266.473 186.977 267.077 187.764 267.845C188.551 268.614 189.177 269.533 189.604 270.547C190.031 271.561 190.25 272.65 190.25 273.75ZM188.75 273.75C188.75 272.85 188.57 271.959 188.221 271.129C187.872 270.299 187.36 269.548 186.716 268.919C186.071 268.29 185.308 267.796 184.47 267.467C183.632 267.137 182.737 266.979 181.837 267C178.181 267.087 175.23 270.131 175.25 273.787C175.253 274.806 175.488 275.81 175.937 276.725C176.386 277.639 177.037 278.439 177.841 279.065C178.203 279.346 178.495 279.706 178.696 280.117C178.897 280.528 179.001 280.98 179 281.438V282H185V281.438C185.001 280.979 185.107 280.526 185.31 280.114C185.512 279.703 185.806 279.342 186.169 279.061C186.975 278.431 187.627 277.625 188.074 276.705C188.522 275.784 188.753 274.774 188.75 273.75ZM187.24 272.875C187.045 271.789 186.523 270.788 185.742 270.008C184.962 269.227 183.961 268.705 182.875 268.511C182.778 268.494 182.678 268.497 182.582 268.519C182.486 268.541 182.395 268.582 182.315 268.639C182.235 268.696 182.167 268.769 182.114 268.852C182.062 268.936 182.027 269.029 182.01 269.126C181.994 269.223 181.997 269.322 182.019 269.418C182.041 269.514 182.082 269.605 182.139 269.685C182.196 269.766 182.268 269.834 182.352 269.886C182.435 269.938 182.528 269.974 182.625 269.99C184.179 270.252 185.497 271.57 185.76 273.126C185.79 273.301 185.881 273.459 186.016 273.574C186.151 273.688 186.323 273.751 186.5 273.75C186.542 273.75 186.585 273.747 186.627 273.74C186.823 273.707 186.997 273.597 187.112 273.434C187.227 273.272 187.273 273.071 187.24 272.875Z" fill="#525252"/>
<path d="M234.716 270.541L237.473 273.299M237.933 270.076C238.115 270.257 238.259 270.473 238.357 270.71C238.455 270.947 238.506 271.201 238.506 271.457C238.506 271.714 238.455 271.968 238.357 272.205C238.259 272.442 238.115 272.657 237.933 272.838L229.188 281.585L225.506 282.506L226.426 278.875L235.175 270.08C235.52 269.733 235.983 269.529 236.471 269.508C236.959 269.486 237.438 269.65 237.812 269.965L237.933 270.076Z" stroke="#0A0A0A" stroke-width="0.7" stroke-linecap="round" stroke-linejoin="round"/>
<path d="M291 268.5H273C272.801 268.5 272.61 268.579 272.47 268.72C272.329 268.86 272.25 269.051 272.25 269.25V282C272.25 282.398 272.408 282.779 272.689 283.061C272.971 283.342 273.352 283.5 273.75 283.5H290.25C290.648 283.5 291.029 283.342 291.311 283.061C291.592 282.779 291.75 282.398 291.75 282V269.25C291.75 269.051 291.671 268.86 291.53 268.72C291.39 268.579 291.199 268.5 291 268.5ZM289.072 270L282 276.483L274.928 270H289.072ZM290.25 282H273.75V270.955L281.493 278.053C281.631 278.18 281.812 278.251 282 278.251C282.188 278.251 282.369 278.18 282.507 278.053L290.25 270.955V282Z" fill="#0A0A0A"/>
<path d="M339.11 277.617L335.061 275.803L335.05 275.798C334.84 275.708 334.611 275.672 334.383 275.693C334.156 275.714 333.937 275.792 333.747 275.918C333.724 275.933 333.703 275.949 333.682 275.967L331.59 277.75C330.265 277.106 328.897 275.748 328.253 274.44L330.039 272.317C330.056 272.295 330.073 272.274 330.088 272.251C330.212 272.061 330.288 271.844 330.307 271.618C330.327 271.392 330.291 271.165 330.202 270.956V270.946L328.382 266.891C328.264 266.619 328.062 266.392 327.804 266.244C327.547 266.097 327.249 266.037 326.954 266.073C325.79 266.226 324.721 266.798 323.947 267.681C323.173 268.565 322.748 269.7 322.75 270.875C322.75 277.698 328.302 283.25 335.125 283.25C336.3 283.252 337.435 282.826 338.318 282.053C339.202 281.279 339.774 280.21 339.927 279.046C339.963 278.751 339.903 278.453 339.756 278.196C339.609 277.938 339.382 277.736 339.11 277.617ZM335.125 281.875C332.209 281.872 329.413 280.712 327.35 278.649C325.288 276.587 324.128 273.791 324.125 270.875C324.122 270.036 324.424 269.224 324.976 268.591C325.527 267.959 326.29 267.549 327.122 267.437C327.121 267.441 327.121 267.444 327.122 267.448L328.926 271.487L327.15 273.613C327.132 273.634 327.116 273.656 327.101 273.679C326.972 273.877 326.896 274.106 326.881 274.342C326.866 274.579 326.912 274.815 327.015 275.028C327.794 276.621 329.398 278.213 331.008 278.991C331.223 279.093 331.46 279.138 331.697 279.12C331.935 279.103 332.163 279.025 332.361 278.893C332.383 278.878 332.405 278.862 332.425 278.845L334.514 277.062L338.553 278.871C338.553 278.871 338.56 278.871 338.562 278.871C338.453 279.704 338.043 280.469 337.41 281.021C336.778 281.574 335.965 281.878 335.125 281.875Z" fill="#0A0A0A"/>
<path d="M41.5306 330.281L29.5306 342.281C29.461 342.351 29.3782 342.406 29.2872 342.444C29.1961 342.482 29.0986 342.501 29 342.501C28.9014 342.501 28.8038 342.482 28.7128 342.444C28.6217 342.406 28.539 342.351 28.4694 342.281L23.2194 337.031C23.0786 336.89 22.9996 336.699 22.9996 336.5C22.9996 336.301 23.0786 336.111 23.2194 335.97C23.3601 335.829 23.551 335.75 23.75 335.75C23.949 335.75 24.1399 335.829 24.2806 335.97L29 340.69L40.4694 329.22C40.6101 329.079 40.801 329 41 329C41.199 329 41.3899 329.079 41.5306 329.22C41.6713 329.361 41.7504 329.551 41.7504 329.75C41.7504 329.949 41.6713 330.14 41.5306 330.281Z" fill="#0A0A0A"/>
<path d="M94.375 328.688V333.563C94.375 333.778 94.2894 333.985 94.137 334.137C93.9846 334.289 93.778 334.375 93.5625 334.375H88.6875C88.472 334.375 88.2653 334.289 88.113 334.137C87.9606 333.985 87.875 333.778 87.875 333.563C87.875 333.347 87.9606 333.14 88.113 332.988C88.2653 332.836 88.472 332.75 88.6875 332.75H91.4703L88.7698 330.276L88.7444 330.252C87.6151 329.123 86.1782 328.352 84.6132 328.035C83.0482 327.718 81.4245 327.869 79.9449 328.469C78.4653 329.07 77.1954 330.093 76.294 331.411C75.3925 332.729 74.8993 334.283 74.8761 335.88C74.8528 337.476 75.3006 339.044 76.1633 340.388C77.0261 341.732 78.2657 342.791 79.7271 343.435C81.1886 344.078 82.8072 344.276 84.3808 344.005C85.9544 343.733 87.4131 343.005 88.5748 341.909C88.7314 341.761 88.9405 341.681 89.156 341.687C89.3715 341.693 89.5758 341.784 89.7239 341.941C89.8721 342.098 89.9519 342.307 89.9459 342.522C89.9399 342.738 89.8486 342.942 89.6919 343.09C87.8856 344.803 85.4894 345.756 83 345.75H82.8659C81.2691 345.728 79.7021 345.314 78.3026 344.545C76.9032 343.776 75.7141 342.675 74.8399 341.338C73.9657 340.002 73.4332 338.471 73.2892 336.88C73.1452 335.29 73.394 333.688 74.0138 332.217C74.6337 330.745 75.6056 329.448 76.8441 328.44C78.0826 327.431 79.5497 326.743 81.1167 326.434C82.6836 326.126 84.3023 326.207 85.8304 326.671C87.3586 327.135 88.7495 327.967 89.8808 329.094L92.75 331.714V328.688C92.75 328.472 92.8356 328.265 92.988 328.113C93.1403 327.961 93.347 327.875 93.5625 327.875C93.778 327.875 93.9846 327.961 94.137 328.113C94.2894 328.265 94.375 328.472 94.375 328.688Z" fill="black"/>
<path fill-rule="evenodd" clip-rule="evenodd" d="M137.294 331.176C137.435 331.478 137.718 331.689 138.048 331.74L143.888 332.632C144.693 332.755 145.022 333.736 144.453 334.319L140.165 338.714C139.943 338.941 139.842 339.26 139.893 339.573L140.897 345.726C141.031 346.55 140.157 347.166 139.426 346.762L134.296 343.926C133.995 343.76 133.63 343.76 133.328 343.926L128.198 346.762C127.467 347.166 126.592 346.55 126.727 345.726L127.731 339.573C127.782 339.26 127.681 338.941 127.46 338.714L123.171 334.319C122.603 333.736 122.932 332.755 123.736 332.632L129.577 331.74C129.906 331.689 130.189 331.478 130.331 331.176L132.907 325.687C133.267 324.921 134.358 324.921 134.718 325.687L137.294 331.176Z" fill="#F4A316"/>
<defs>
<clipPath id="clip0_1154_12216">
<rect width="26" height="26" fill="white" transform="translate(270 20)"/>
</clipPath>
</defs>
</svg>
