<svg width="22" height="22" viewBox="0 0 22 22" fill="none" xmlns="http://www.w3.org/2000/svg">
<path d="M5.8714 5.05664C5.97824 5.05666 6.08421 5.07825 6.18292 5.11914C6.28159 5.16004 6.37106 5.22037 6.44659 5.2959L10.929 9.77832L11.0003 9.84863L11.0706 9.77832L15.553 5.30469C15.6286 5.22902 15.7189 5.16889 15.8177 5.12793C15.9163 5.08706 16.0224 5.06543 16.1292 5.06543C16.236 5.06549 16.3421 5.08702 16.4407 5.12793C16.5393 5.16889 16.629 5.22912 16.7044 5.30469C17.0135 5.61393 17.0135 6.13702 16.7044 6.44629L12.1507 11L12.222 11.0703L16.7044 15.5527C16.78 15.6283 16.8403 15.7186 16.8812 15.8174C16.9219 15.916 16.9427 16.0222 16.9427 16.1289C16.9426 16.2356 16.922 16.3418 16.8812 16.4404C16.8403 16.5391 16.7799 16.6286 16.7044 16.7041C16.6289 16.7796 16.5394 16.84 16.4407 16.8809C16.3421 16.9217 16.2359 16.9423 16.1292 16.9424C16.0225 16.9424 15.9163 16.9216 15.8177 16.8809C15.7189 16.84 15.6286 16.7797 15.553 16.7041L11.0706 12.2217L11.0003 12.1504L6.44659 16.7041C6.37105 16.7796 6.28161 16.84 6.18292 16.8809C6.08421 16.9217 5.97824 16.9424 5.8714 16.9424C5.76459 16.9424 5.65856 16.9217 5.55988 16.8809C5.46125 16.84 5.37173 16.7795 5.2962 16.7041C5.22074 16.6286 5.16035 16.539 5.11945 16.4404C5.0786 16.3418 5.057 16.2356 5.05695 16.1289C5.05695 16.0221 5.07862 15.9161 5.11945 15.8174C5.16035 15.7186 5.22062 15.6283 5.2962 15.5527L9.84894 11L9.77863 10.9287L5.2962 6.44629C5.22067 6.37076 5.16035 6.28129 5.11945 6.18262C5.07856 6.08391 5.05696 5.97794 5.05695 5.87109C5.05695 5.76421 5.07855 5.65832 5.11945 5.55957C5.16035 5.46082 5.22062 5.37148 5.2962 5.2959C5.37178 5.22032 5.46112 5.16004 5.55988 5.11914C5.65862 5.07824 5.76452 5.05664 5.8714 5.05664Z" fill="#8A8A8A" stroke="#F8FAFC" stroke-width="0.2"/>
</svg>
