<svg width="26" height="26" viewBox="0 0 26 26" fill="none" xmlns="http://www.w3.org/2000/svg">
<mask id="path-1-inside-1_9347_5590" fill="white">
<path d="M12.3911 5.87806C12.5211 5.87806 12.5866 5.80192 12.6196 5.68213C12.9566 3.86492 12.9353 3.82127 14.8286 3.46238C14.9586 3.44056 15.0352 3.36488 15.0352 3.23395C15.0352 3.10349 14.9591 3.02734 14.8282 3.00552C12.946 2.62481 13.0003 2.58117 12.6196 0.785308C12.5871 0.665987 12.5216 0.589844 12.3911 0.589844C12.2607 0.589844 12.1952 0.665987 12.1622 0.785308C11.7815 2.58117 11.8465 2.62434 9.95364 3.00552C9.83386 3.02688 9.74657 3.10302 9.74657 3.23395C9.74657 3.36442 9.83386 3.44056 9.95318 3.46238C11.847 3.84309 11.8252 3.86492 12.1622 5.68213C12.1947 5.80192 12.2607 5.87806 12.3911 5.87806ZM7.12428 13.3647C7.33089 13.3647 7.4725 13.2342 7.49432 13.0383C7.88571 10.1328 7.98368 10.1328 10.9871 9.55613C11.1831 9.52363 11.3247 9.3927 11.3247 9.18609C11.3247 8.99016 11.1831 8.84902 10.9871 8.81606C7.98368 8.40284 7.87504 8.30488 7.49432 5.34506C7.4725 5.14913 7.33089 5.00752 7.12428 5.00752C6.92836 5.00752 6.78675 5.14913 6.76493 5.35574C6.40603 8.27192 6.25375 8.26124 3.27211 8.81606C3.07618 8.8597 2.93457 8.99016 2.93457 9.18609C2.93457 9.40384 3.07618 9.52363 3.31528 9.55613C6.27557 10.0348 6.40603 10.111 6.76493 13.0165C6.78675 13.2342 6.92836 13.3647 7.12428 13.3647ZM14.5018 25.411C14.785 25.411 14.9916 25.204 15.0459 24.9101C15.8185 18.9472 16.6565 18.0437 22.5544 17.391C22.8589 17.3585 23.066 17.13 23.066 16.8468C23.066 16.5636 22.8589 16.3463 22.5544 16.3027C16.6565 15.6499 15.8185 14.7468 15.0459 8.78356C14.9916 8.48967 14.785 8.29374 14.5018 8.29374C14.2186 8.29374 14.0124 8.48967 13.9688 8.78356C13.1962 14.7468 12.3475 15.6499 6.46036 16.3027C6.14464 16.3463 5.93803 16.5641 5.93803 16.8468C5.93803 17.13 6.14464 17.3585 6.46036 17.391C12.3364 18.1635 13.1526 18.9579 13.9688 24.9101C14.0124 25.204 14.219 25.411 14.5018 25.411Z"/>
</mask>
<path d="M12.3911 5.87806C12.5211 5.87806 12.5866 5.80192 12.6196 5.68213C12.9566 3.86492 12.9353 3.82127 14.8286 3.46238C14.9586 3.44056 15.0352 3.36488 15.0352 3.23395C15.0352 3.10349 14.9591 3.02734 14.8282 3.00552C12.946 2.62481 13.0003 2.58117 12.6196 0.785308C12.5871 0.665987 12.5216 0.589844 12.3911 0.589844C12.2607 0.589844 12.1952 0.665987 12.1622 0.785308C11.7815 2.58117 11.8465 2.62434 9.95364 3.00552C9.83386 3.02688 9.74657 3.10302 9.74657 3.23395C9.74657 3.36442 9.83386 3.44056 9.95318 3.46238C11.847 3.84309 11.8252 3.86492 12.1622 5.68213C12.1947 5.80192 12.2607 5.87806 12.3911 5.87806ZM7.12428 13.3647C7.33089 13.3647 7.4725 13.2342 7.49432 13.0383C7.88571 10.1328 7.98368 10.1328 10.9871 9.55613C11.1831 9.52363 11.3247 9.3927 11.3247 9.18609C11.3247 8.99016 11.1831 8.84902 10.9871 8.81606C7.98368 8.40284 7.87504 8.30488 7.49432 5.34506C7.4725 5.14913 7.33089 5.00752 7.12428 5.00752C6.92836 5.00752 6.78675 5.14913 6.76493 5.35574C6.40603 8.27192 6.25375 8.26124 3.27211 8.81606C3.07618 8.8597 2.93457 8.99016 2.93457 9.18609C2.93457 9.40384 3.07618 9.52363 3.31528 9.55613C6.27557 10.0348 6.40603 10.111 6.76493 13.0165C6.78675 13.2342 6.92836 13.3647 7.12428 13.3647ZM14.5018 25.411C14.785 25.411 14.9916 25.204 15.0459 24.9101C15.8185 18.9472 16.6565 18.0437 22.5544 17.391C22.8589 17.3585 23.066 17.13 23.066 16.8468C23.066 16.5636 22.8589 16.3463 22.5544 16.3027C16.6565 15.6499 15.8185 14.7468 15.0459 8.78356C14.9916 8.48967 14.785 8.29374 14.5018 8.29374C14.2186 8.29374 14.0124 8.48967 13.9688 8.78356C13.1962 14.7468 12.3475 15.6499 6.46036 16.3027C6.14464 16.3463 5.93803 16.5641 5.93803 16.8468C5.93803 17.13 6.14464 17.3585 6.46036 17.391C12.3364 18.1635 13.1526 18.9579 13.9688 24.9101C14.0124 25.204 14.219 25.411 14.5018 25.411Z" stroke="#525252" stroke-width="4" mask="url(#path-1-inside-1_9347_5590)"/>
</svg>
