<svg width="15" height="15" viewBox="0 0 15 15" fill="none" xmlns="http://www.w3.org/2000/svg">
<path d="M9.57416 3.63283C9.71586 3.93472 9.99872 4.1461 10.3284 4.19646L13.6173 4.69892C14.4219 4.82184 14.7504 5.80322 14.182 6.3858L11.7402 8.88844C11.5186 9.11561 11.418 9.43451 11.469 9.74776L12.0368 13.2292C12.1712 14.053 11.2967 14.6692 10.5662 14.2654L7.71728 12.6909C7.41623 12.5245 7.0508 12.5245 6.74977 12.6909L3.90194 14.2651C3.17138 14.669 2.29682 14.0529 2.43119 13.229L2.99894 9.74783C3.05004 9.43454 2.94936 9.1156 2.72766 8.88843L0.285393 6.38588C-0.283136 5.80332 0.0454 4.82183 0.850072 4.69892L4.13951 4.19646C4.46923 4.1461 4.75213 3.93466 4.89381 3.6327L6.32838 0.57523C6.68822 -0.191682 7.77897 -0.191761 8.13892 0.575099L9.57416 3.63283Z" fill="#F4A316"/>
</svg>
