<svg width="50" height="50" viewBox="0 0 50 50" fill="none" xmlns="http://www.w3.org/2000/svg">
<mask id="path-1-outside-1_15719_2566" maskUnits="userSpaceOnUse" x="-0.999023" y="0" width="51" height="50" fill="black">
<rect fill="white" x="-0.999023" width="51" height="50"/>
<path fill-rule="evenodd" clip-rule="evenodd" d="M24.022 1.5751C24.3819 0.808299 25.4725 0.8083 25.8325 1.5751L32.4259 15.6224C32.5676 15.9243 32.8505 16.1357 33.1801 16.1861L48.0034 18.4509C48.808 18.5738 49.1365 19.5552 48.5681 20.1377L37.7797 31.1951C37.558 31.4223 37.4574 31.7412 37.5085 32.0544L40.0465 47.614C40.1809 48.4379 39.3064 49.0541 38.5758 48.6502L25.411 41.3729C25.1099 41.2065 24.7445 41.2065 24.4434 41.3729L11.2786 48.6502C10.5481 49.0541 9.6735 48.4379 9.80789 47.614L12.346 32.0544C12.3971 31.7412 12.2964 31.4223 12.0748 31.1951L1.28629 20.1377C0.717877 19.5552 1.04641 18.5738 1.85101 18.4509L16.6743 16.1861C17.004 16.1357 17.2868 15.9243 17.4285 15.6224L24.022 1.5751Z"/>
</mask>
<path fill-rule="evenodd" clip-rule="evenodd" d="M24.022 1.5751C24.3819 0.808299 25.4725 0.8083 25.8325 1.5751L32.4259 15.6224C32.5676 15.9243 32.8505 16.1357 33.1801 16.1861L48.0034 18.4509C48.808 18.5738 49.1365 19.5552 48.5681 20.1377L37.7797 31.1951C37.558 31.4223 37.4574 31.7412 37.5085 32.0544L40.0465 47.614C40.1809 48.4379 39.3064 49.0541 38.5758 48.6502L25.411 41.3729C25.1099 41.2065 24.7445 41.2065 24.4434 41.3729L11.2786 48.6502C10.5481 49.0541 9.6735 48.4379 9.80789 47.614L12.346 32.0544C12.3971 31.7412 12.2964 31.4223 12.0748 31.1951L1.28629 20.1377C0.717877 19.5552 1.04641 18.5738 1.85101 18.4509L16.6743 16.1861C17.004 16.1357 17.2868 15.9243 17.4285 15.6224L24.022 1.5751Z" fill="white"/>
<path d="M16.6743 16.1861L16.5233 15.1975L16.6743 16.1861ZM17.4285 15.6224L16.5233 15.1975L17.4285 15.6224ZM1.28629 20.1377L0.570533 20.8361L1.28629 20.1377ZM1.85101 18.4509L1.69998 17.4623L1.85101 18.4509ZM12.0748 31.1951L11.359 31.8934L12.0748 31.1951ZM11.2786 48.6502L11.7624 49.5254L11.2786 48.6502ZM9.80789 47.614L8.82094 47.453L9.80789 47.614ZM25.411 41.3729L24.9272 42.2481L25.411 41.3729ZM24.4434 41.3729L24.9272 42.2481L24.4434 41.3729ZM40.0465 47.614L39.0596 47.775L40.0465 47.614ZM38.5758 48.6502L38.092 49.5254L38.5758 48.6502ZM37.5085 32.0544L38.4954 31.8934L37.5085 32.0544ZM48.5681 20.1377L47.8524 19.4394L48.5681 20.1377ZM32.4259 15.6224L31.5207 16.0473L32.4259 15.6224ZM33.1801 16.1861L33.0291 17.1746L33.1801 16.1861ZM25.8325 1.5751L26.7377 1.15021L25.8325 1.5751ZM24.022 1.5751L24.9272 2L24.022 1.5751ZM25.8325 1.5751L24.9272 2L31.5207 16.0473L32.4259 15.6224L33.3312 15.1975L26.7377 1.15021L25.8325 1.5751ZM33.1801 16.1861L33.0291 17.1746L47.8524 19.4394L48.0034 18.4509L48.1544 17.4623L33.3312 15.1975L33.1801 16.1861ZM48.5681 20.1377L47.8524 19.4394L37.0639 30.4967L37.7797 31.1951L38.4954 31.8934L49.2839 20.8361L48.5681 20.1377ZM37.5085 32.0544L36.5215 32.2154L39.0596 47.775L40.0465 47.614L41.0335 47.453L38.4954 31.8934L37.5085 32.0544ZM38.5758 48.6502L39.0596 47.775L25.8948 40.4977L25.411 41.3729L24.9272 42.2481L38.092 49.5254L38.5758 48.6502ZM24.4434 41.3729L23.9596 40.4977L10.7948 47.775L11.2786 48.6502L11.7624 49.5254L24.9272 42.2481L24.4434 41.3729ZM9.80789 47.614L10.7948 47.775L13.3329 32.2154L12.346 32.0544L11.359 31.8934L8.82094 47.453L9.80789 47.614ZM12.0748 31.1951L12.7905 30.4967L2.00204 19.4394L1.28629 20.1377L0.570533 20.8361L11.359 31.8934L12.0748 31.1951ZM1.85101 18.4509L2.00204 19.4394L16.8253 17.1746L16.6743 16.1861L16.5233 15.1975L1.69998 17.4623L1.85101 18.4509ZM17.4285 15.6224L18.3338 16.0473L24.9272 2L24.022 1.5751L23.1167 1.1502L16.5233 15.1975L17.4285 15.6224ZM16.6743 16.1861L16.8253 17.1746C17.4847 17.0739 18.0504 16.6511 18.3338 16.0473L17.4285 15.6224L16.5233 15.1975V15.1975L16.6743 16.1861ZM1.28629 20.1377L2.00204 19.4394L2.00204 19.4394L1.85101 18.4509L1.69998 17.4623C0.0907786 17.7082 -0.566289 19.6709 0.570533 20.8361L1.28629 20.1377ZM12.346 32.0544L13.3329 32.2154C13.4351 31.5889 13.2338 30.9511 12.7905 30.4967L12.0748 31.1951L11.359 31.8934V31.8934L12.346 32.0544ZM11.2786 48.6502L10.7948 47.775V47.775L9.80789 47.614L8.82094 47.453C8.55216 49.1008 10.3013 50.3331 11.7624 49.5254L11.2786 48.6502ZM25.411 41.3729L25.8948 40.4977C25.2927 40.1649 24.5617 40.1649 23.9596 40.4977L24.4434 41.3729L24.9272 42.2481H24.9272L25.411 41.3729ZM40.0465 47.614L39.0596 47.775V47.775L38.5758 48.6502L38.092 49.5254C39.5531 50.3331 41.3023 49.1008 41.0335 47.453L40.0465 47.614ZM37.7797 31.1951L37.0639 30.4967C36.6206 30.9511 36.4193 31.5889 36.5215 32.2154L37.5085 32.0544L38.4954 31.8934V31.8934L37.7797 31.1951ZM48.0034 18.4509L47.8524 19.4394V19.4394L48.5681 20.1377L49.2839 20.8361C50.4207 19.6709 49.7636 17.7082 48.1544 17.4623L48.0034 18.4509ZM32.4259 15.6224L31.5207 16.0473C31.8041 16.6511 32.3698 17.0739 33.0291 17.1746L33.1801 16.1861L33.3312 15.1975V15.1975L32.4259 15.6224ZM25.8325 1.5751L26.7377 1.15021C26.0179 -0.383399 23.8366 -0.383405 23.1167 1.1502L24.022 1.5751L24.9272 2V2L25.8325 1.5751Z" fill="#D1D1D1" mask="url(#path-1-outside-1_15719_2566)"/>
</svg>
